0
SECTION
2
HEADER
9
$ACADVER
1
AC1015
9
$INSUNITS
70
4
0
ENDSEC
0
SECTION
2
TABLES
0
TABLE
2
LAYER
70
8
0
LAYER
2
A-WALL
70
0
62
7
6
CONTINUOUS
370
50
0
LAYER
2
A-DOOR
70
0
62
3
6
CONTINUOUS
370
25
0
LAYER
2
A-WIND
70
0
62
4
6
CONTINUOUS
370
25
0
LAYER
2
A-FURN
70
0
62
8
6
CONTINUOUS
370
13
0
LAYER
2
A-ANNO-DIMS
70
0
62
2
6
CONTINUOUS
370
13
0
LAYER
2
A-ANNO-TTLB
70
0
62
7
6
CONTINUOUS
370
35
0
LAYER
2
A-GRID
70
0
62
9
6
CONTINUOUS
370
9
0
LAYER
2
A-AREA
70
0
62
5
6
CONTINUOUS
370
9
0
ENDTAB
0
ENDSEC
0
SECTION
2
ENTITIES
0
LINE
8
A-WALL
10
2.5000
20
1.5000
30
0.0
11
27.5000
21
1.5000
31
0.0
0
LINE
8
A-WALL
10
27.5000
20
1.5000
30
0.0
11
27.5000
21
2.0000
31
0.0
0
LINE
8
A-WALL
10
27.5000
20
2.0000
30
0.0
11
2.5000
21
2.0000
31
0.0
0
LINE
8
A-WALL
10
2.5000
20
2.0000
30
0.0
11
2.5000
21
1.5000
31
0.0
0
TEXT
8
A-AREA
10
15.0000
20
1.7500
30
0.0
40
0.1
1
Muro perimetrale
0
LINE
8
A-WALL
10
2.5000
20
19.0000
30
0.0
11
27.5000
21
19.0000
31
0.0
0
LINE
8
A-WALL
10
27.5000
20
19.0000
30
0.0
11
27.5000
21
19.5000
31
0.0
0
LINE
8
A-WALL
10
27.5000
20
19.5000
30
0.0
11
2.5000
21
19.5000
31
0.0
0
LINE
8
A-WALL
10
2.5000
20
19.5000
30
0.0
11
2.5000
21
19.0000
31
0.0
0
TEXT
8
A-AREA
10
15.0000
20
19.2500
30
0.0
40
0.1
1
Muro perimetrale
0
LINE
8
A-WALL
10
2.5000
20
1.5000
30
0.0
11
3.0000
21
1.5000
31
0.0
0
LINE
8
A-WALL
10
3.0000
20
1.5000
30
0.0
11
3.0000
21
19.0000
31
0.0
0
LINE
8
A-WALL
10
3.0000
20
19.0000
30
0.0
11
2.5000
21
19.0000
31
0.0
0
LINE
8
A-WALL
10
2.5000
20
19.0000
30
0.0
11
2.5000
21
1.5000
31
0.0
0
TEXT
8
A-AREA
10
2.7500
20
10.2500
30
0.0
40
0.1
1
Muro perimetrale
0
LINE
8
A-WALL
10
27.0000
20
1.5000
30
0.0
11
27.5000
21
1.5000
31
0.0
0
LINE
8
A-WALL
10
27.5000
20
1.5000
30
0.0
11
27.5000
21
19.0000
31
0.0
0
LINE
8
A-WALL
10
27.5000
20
19.0000
30
0.0
11
27.0000
21
19.0000
31
0.0
0
LINE
8
A-WALL
10
27.0000
20
19.0000
30
0.0
11
27.0000
21
1.5000
31
0.0
0
TEXT
8
A-AREA
10
27.2500
20
10.2500
30
0.0
40
0.1
1
Muro perimetrale
0
LINE
8
A-WALL
10
2.5000
20
5.0000
30
0.0
11
27.0000
21
5.0000
31
0.0
0
LINE
8
A-WALL
10
27.0000
20
5.0000
30
0.0
11
27.0000
21
5.5000
31
0.0
0
LINE
8
A-WALL
10
27.0000
20
5.5000
30
0.0
11
2.5000
21
5.5000
31
0.0
0
LINE
8
A-WALL
10
2.5000
20
5.5000
30
0.0
11
2.5000
21
5.0000
31
0.0
0
TEXT
8
A-AREA
10
14.7500
20
5.2500
30
0.0
40
0.1
1
Muro divisorio
0
LINE
8
A-WALL
10
16.0000
20
1.5000
30
0.0
11
16.5000
21
1.5000
31
0.0
0
LINE
8
A-WALL
10
16.5000
20
1.5000
30
0.0
11
16.5000
21
13.5000
31
0.0
0
LINE
8
A-WALL
10
16.5000
20
13.5000
30
0.0
11
16.0000
21
13.5000
31
0.0
0
LINE
8
A-WALL
10
16.0000
20
13.5000
30
0.0
11
16.0000
21
1.5000
31
0.0
0
TEXT
8
A-AREA
10
16.2500
20
7.5000
30
0.0
40
0.1
1
Muro divisorio
0
LINE
8
A-DOOR
10
12.5000
20
5.0000
30
0.0
11
14.5000
21
5.0000
31
0.0
0
LINE
8
A-DOOR
10
14.5000
20
5.0000
30
0.0
11
14.5000
21
5.5000
31
0.0
0
LINE
8
A-DOOR
10
14.5000
20
5.5000
30
0.0
11
12.5000
21
5.5000
31
0.0
0
LINE
8
A-DOOR
10
12.5000
20
5.5000
30
0.0
11
12.5000
21
5.0000
31
0.0
0
ARC
8
A-DOOR
10
12.5000
20
5.2500
30
0.0
40
2.0000
50
0
51
90
0
TEXT
8
A-AREA
10
13.5000
20
5.2500
30
0.0
40
0.1
1
Porta
0
LINE
8
A-WIND
10
7.5000
20
1.5000
30
0.0
11
10.0000
21
1.5000
31
0.0
0
LINE
8
A-WIND
10
10.0000
20
1.5000
30
0.0
11
10.0000
21
2.0000
31
0.0
0
LINE
8
A-WIND
10
10.0000
20
2.0000
30
0.0
11
7.5000
21
2.0000
31
0.0
0
LINE
8
A-WIND
10
7.5000
20
2.0000
30
0.0
11
7.5000
21
1.5000
31
0.0
0
LINE
8
A-WIND
10
7.5000
20
1.6650
30
0.0
11
10.0000
21
1.6650
31
0.0
0
LINE
8
A-WIND
10
7.5000
20
1.8300
30
0.0
11
10.0000
21
1.8300
31
0.0
0
TEXT
8
A-AREA
10
8.7500
20
1.7500
30
0.0
40
0.1
1
Finestra
0
LINE
8
A-WIND
10
20.0000
20
1.5000
30
0.0
11
22.5000
21
1.5000
31
0.0
0
LINE
8
A-WIND
10
22.5000
20
1.5000
30
0.0
11
22.5000
21
2.0000
31
0.0
0
LINE
8
A-WIND
10
22.5000
20
2.0000
30
0.0
11
20.0000
21
2.0000
31
0.0
0
LINE
8
A-WIND
10
20.0000
20
2.0000
30
0.0
11
20.0000
21
1.5000
31
0.0
0
LINE
8
A-WIND
10
20.0000
20
1.6650
30
0.0
11
22.5000
21
1.6650
31
0.0
0
LINE
8
A-WIND
10
20.0000
20
1.8300
30
0.0
11
22.5000
21
1.8300
31
0.0
0
TEXT
8
A-AREA
10
21.2500
20
1.7500
30
0.0
40
0.1
1
Finestra
0
LINE
8
A-FURN
10
5.0000
20
5.5000
30
0.0
11
7.5000
21
5.5000
31
0.0
0
LINE
8
A-FURN
10
7.5000
20
5.5000
30
0.0
11
7.5000
21
7.0000
31
0.0
0
LINE
8
A-FURN
10
7.5000
20
7.0000
30
0.0
11
5.0000
21
7.0000
31
0.0
0
LINE
8
A-FURN
10
5.0000
20
7.0000
30
0.0
11
5.0000
21
5.5000
31
0.0
0
TEXT
8
A-FURN
10
6.2500
20
6.2500
30
0.0
40
0.15
1
Tavolo
0
LINE
8
A-FURN
10
7.5000
20
7.5000
30
0.0
11
11.5000
21
7.5000
31
0.0
0
LINE
8
A-FURN
10
11.5000
20
7.5000
30
0.0
11
11.5000
21
9.5000
31
0.0
0
LINE
8
A-FURN
10
11.5000
20
9.5000
30
0.0
11
7.5000
21
9.5000
31
0.0
0
LINE
8
A-FURN
10
7.5000
20
9.5000
30
0.0
11
7.5000
21
7.5000
31
0.0
0
TEXT
8
A-FURN
10
9.5000
20
8.5000
30
0.0
40
0.15
1
Divano
0
LINE
8
A-FURN
10
5.0000
20
10.0000
30
0.0
11
9.5000
21
10.0000
31
0.0
0
LINE
8
A-FURN
10
9.5000
20
10.0000
30
0.0
11
9.5000
21
14.0000
31
0.0
0
LINE
8
A-FURN
10
9.5000
20
14.0000
30
0.0
11
5.0000
21
14.0000
31
0.0
0
LINE
8
A-FURN
10
5.0000
20
14.0000
30
0.0
11
5.0000
21
10.0000
31
0.0
0
TEXT
8
A-FURN
10
7.2500
20
12.0000
30
0.0
40
0.15
1
Letto
0
LINE
8
A-FURN
10
10.0000
20
15.0000
30
0.0
11
11.5000
21
15.0000
31
0.0
0
LINE
8
A-FURN
10
11.5000
20
15.0000
30
0.0
11
11.5000
21
16.5000
31
0.0
0
LINE
8
A-FURN
10
11.5000
20
16.5000
30
0.0
11
10.0000
21
16.5000
31
0.0
0
LINE
8
A-FURN
10
10.0000
20
16.5000
30
0.0
11
10.0000
21
15.0000
31
0.0
0
TEXT
8
A-FURN
10
10.7500
20
15.7500
30
0.0
40
0.15
1
WC
0
LINE
8
A-FURN
10
12.5000
20
15.0000
30
0.0
11
14.0000
21
15.0000
31
0.0
0
LINE
8
A-FURN
10
14.0000
20
15.0000
30
0.0
11
14.0000
21
16.5000
31
0.0
0
LINE
8
A-FURN
10
14.0000
20
16.5000
30
0.0
11
12.5000
21
16.5000
31
0.0
0
LINE
8
A-FURN
10
12.5000
20
16.5000
30
0.0
11
12.5000
21
15.0000
31
0.0
0
TEXT
8
A-FURN
10
13.2500
20
15.7500
30
0.0
40
0.15
1
Lavabo
0
LINE
8
A-ANNO-TTLB
10
0.0000
20
-1.5000
30
0.0
11
4.2000
21
-1.5000
31
0.0
0
LINE
8
A-ANNO-TTLB
10
4.2000
20
-1.5000
30
0.0
11
4.2000
21
-0.7000
31
0.0
0
LINE
8
A-ANNO-TTLB
10
4.2000
20
-0.7000
30
0.0
11
0.0000
21
-0.7000
31
0.0
0
LINE
8
A-ANNO-TTLB
10
0.0000
20
-0.7000
30
0.0
11
0.0000
21
-1.5000
31
0.0
0
LINE
8
A-ANNO-TTLB
10
2.8000
20
-1.5000
30
0.0
11
2.8000
21
-0.7000
31
0.0
0
LINE
8
A-ANNO-TTLB
10
0.0000
20
-0.9500
30
0.0
11
4.2000
21
-0.9500
31
0.0
0
TEXT
8
A-ANNO-TTLB
10
0.1000
20
-0.8800
30
0.0
40
0.12
1
PROGETTO: Villa
0
TEXT
8
A-ANNO-TTLB
10
0.1000
20
-1.0800
30
0.0
40
0.1
1
COMMITTENTE: J
0
TEXT
8
A-ANNO-TTLB
10
0.1000
20
-1.2200
30
0.0
40
0.1
1
SCALA: 1:50 | UNITA: M
0
TEXT
8
A-ANNO-TTLB
10
0.1000
20
-1.3600
30
0.0
40
0.1
1
DATA: 15/04/2026
0
TEXT
8
A-ANNO-TTLB
10
2.9000
20
-0.8800
30
0.0
40
0.14
1
CAD-Genius AI
0
TEXT
8
A-ANNO-TTLB
10
2.9000
20
-1.0800
30
0.0
40
0.1
1
Rev. 01
0
ENDSEC
0
EOF
